# xmcd
#
# Track frame offsets:
#	150
#	12012
#	24132
#	32860
#	44420
#	54315
#	64957
#	77967
#	89820
#	101220
#	112672
#	124200
#
# Disc length: 1802 seconds
#
# Revision: 0
# Processed by: cddbd v1.4PL0 Copyright (c) Steve Scherf et al.
# Submitted via: dBpowerAMP V4.0
#
DISCID=9907080c
DTITLE=Patsy Cline - Today, Tomorrow, And Forever (Volume 1)
DYEAR=1900
DGENRE=Country
TTITLE0=Walkin' After Midnight
TTITLE1=Today, Tomorrow, And Forever
TTITLE2=Come On In
TTITLE3=The Heart You Break May Be Your Own
TTITLE4=I'm Blue Again
TTITLE5=Walking Dream
TTITLE6=Yes, I Understand
TTITLE7=A Poor Man's Roses
TTITLE8=Stop The World
TTITLE9=Hungry For Love
TTITLE10=I Go To Church On Sunday
TTITLE11=A Stranger In My Arms
EXTD=
EXTT0=
EXTT1=
EXTT2=
EXTT3=
EXTT4=
EXTT5=
EXTT6=
EXTT7=
EXTT8=
EXTT9=
EXTT10=
EXTT11=
PLAYORDER=
